<?xml version="1.0" encoding="UTF-8"?>
<svg id="lucid-svg" width="180" height="180" viewBox="0 0 100 100" fill="none" xmlns="http://www.w3.org/2000/svg">
    <rect width="100" height="100" fill="black"/>
    <defs>
        <linearGradient id="abyssal-blue" x1="0%" y1="0%" x2="100%" y2="100%">
            <stop offset="0%" style="stop-color:#008899" /> 
            <stop offset="100%" style="stop-color:#004455" />
        </linearGradient>
        <linearGradient id="titanium-matte" x1="0%" y1="0%" x2="0%" y2="100%">
            <stop offset="0%" style="stop-color:#E2E8F0" />
            <stop offset="100%" style="stop-color:#64748B" />
        </linearGradient>
        <radialGradient id="soft-glow" cx="50%" cy="50%" r="50%">
            <stop offset="0%" style="stop-color:#00CCDD; stop-opacity:0.6" />
            <stop offset="100%" style="stop-color:#00CCDD; stop-opacity:0" />
        </radialGradient>
    </defs>
    <circle cx="50" cy="50" r="1.5" fill="#334155" opacity="0.3" />
    <g>
        <path d="M36 32V47H62L69 38H45V32H36Z" fill="url(#titanium-matte)" />
        <path d="M64 68V53H38L31 62H55V68H64Z" fill="url(#abyssal-blue)" />
        <rect x="47.5" y="47.5" width="5" height="5" transform="rotate(45 50 50)" fill="#00CCDD" />
        <circle cx="50" cy="50" r="6" fill="url(#soft-glow)" />
    </g>
    <g stroke="#1E293B" stroke-width="0.3">
        <path d="M50 10V18" /> <path d="M50 82V90" />
        <path d="M10 50L18 50" /> <path d="M82 50L90 50" />
    </g>
</svg>